<?xml version="1.0" encoding="UTF-8"?>
<svg width="144px" height="132px" viewBox="0 0 144 132" version="1.1" xmlns="http://www.w3.org/2000/svg" xmlns:xlink="http://www.w3.org/1999/xlink">
    <!-- Generator: sketchtool 54.1 (76490) - https://sketchapp.com -->
    <title>C4864751-14D9-468F-B761-FC4E5CD8FB53</title>
    <desc>Created with sketchtool.</desc>
    <g id="Page-1" stroke="none" stroke-width="1" fill="none" fill-rule="evenodd">
        <g id="Exercise" transform="translate(-328.000000, -103.000000)" fill="#FFFFFF">
            <g id="artwork" transform="translate(16.000000, 24.000000)">
                <g id="Top-content" transform="translate(312.000000, 0.000000)">
                    <g id="Weahter-Icon" transform="translate(0.000000, 79.000000)">
                        <path d="M107.543123,68.4190063 L94.0101413,95.2133789 L119.592676,95.2133789 L80.0388822,131.643494 L95.4297805,101.992189 L74.0571429,101.992189 L107.543123,68.4190063 Z M104.914286,88.6875 L115.2,55.6875 L80.5978022,88.6875 L24.6857143,88.6875 L24.6857143,88.6166002 C10.4878506,87.6326063 0,76.5433016 0,63.9375 C0,48.6676588 11.5126779,37.125 26.7428571,37.125 C27.66458,37.125 28.5781739,37.1815112 29.480264,37.2918564 C33.1602537,15.7817651 51.361657,7.10542736e-15 74.0571429,7.10542736e-15 C92.8039644,7.10542736e-15 109.242141,12.7445621 115.036854,30.9379536 C115.0912,30.9376513 115.145583,30.9375 115.2,30.9375 C131.105801,30.9375 144,43.8652778 144,59.8125 C144,75.0662407 132.202853,87.5574345 117.257143,88.6149741 L117.257143,88.6875 L104.914286,88.6875 Z M21.0115457,108.885342 L33.3544029,96.5103423 C34.1577671,95.7048859 35.460278,95.7048859 36.2636422,96.5103423 C37.0670065,97.3157986 37.0670065,98.6217014 36.2636422,99.4271577 L23.9207851,111.802158 C23.1174208,112.607614 21.81491,112.607614 21.0115457,111.802158 C20.2081815,110.996701 20.2081815,109.690799 21.0115457,108.885342 Z M37.4686886,108.885342 L49.8115457,96.5103423 C50.61491,95.7048859 51.9174208,95.7048859 52.7207851,96.5103423 C53.5241493,97.3157986 53.5241493,98.6217014 52.7207851,99.4271577 L40.3779279,111.802158 C39.5745637,112.607614 38.2720529,112.607614 37.4686886,111.802158 C36.6653243,110.996701 36.6653243,109.690799 37.4686886,108.885342 Z M53.9258315,108.885342 L66.2686886,96.5103423 C67.0720529,95.7048859 68.3745637,95.7048859 69.1779279,96.5103423 C69.9812922,97.3157986 69.9812922,98.6217014 69.1779279,99.4271577 L56.8350708,111.802158 C56.0317065,112.607614 54.7291957,112.607614 53.9258315,111.802158 C53.1224672,110.996701 53.1224672,109.690799 53.9258315,108.885342 Z" id="Combined-Shape"></path>
                    </g>
                </g>
            </g>
        </g>
    </g>
</svg>